M48
; DRILL file {KiCad (5.1.5)-3} date 8/29/2020 6:04:37 PM
; FORMAT={-:-/ absolute / inch / decimal}
; #@! TF.CreationDate,2020-08-29T18:04:37-04:00
; #@! TF.GenerationSoftware,Kicad,Pcbnew,(5.1.5)-3
; #@! TF.FileFunction,Plated,1,2,PTH
FMAT,2
INCH
T1C0.0157
T2C0.0591
T3C0.0650
T4C0.2224
%
G90
G05
T1
X0.7772Y0.8449
X0.778Y0.9161
X0.778Y0.8807
X0.778Y0.8098
X0.778Y0.7744
X0.828Y0.9165
X0.828Y0.8811
X0.828Y0.8102
X0.828Y0.7748
X0.8799Y0.9161
X0.8799Y0.8807
X0.8799Y0.8453
X0.8799Y0.8098
X0.8799Y0.7744
X0.928Y0.9161
X0.928Y0.8807
X0.928Y0.8453
X0.928Y0.8098
X0.928Y0.7744
X0.978Y0.9165
X0.978Y0.8811
X0.978Y0.8457
X0.978Y0.8102
X0.978Y0.7748
X1.0283Y0.9169
X1.0283Y0.8823
X1.0283Y0.8087
X1.0283Y0.7732
T2
X0.4055Y1.9094
X0.4055Y1.7913
X0.4055Y1.6732
X0.4055Y1.5551
X0.4055Y1.437
X0.4055Y1.3189
X0.4055Y1.2008
X0.4055Y1.0827
X0.5236Y1.9094
X0.5236Y1.7913
X0.5236Y1.6732
X0.5236Y1.5551
X0.5236Y1.437
X0.5236Y1.3189
X0.5236Y1.2008
X0.5236Y1.0827
X0.6417Y1.9094
X0.6417Y1.7913
X0.6417Y1.6732
X0.6417Y1.5551
X0.6417Y1.437
X0.6417Y1.3189
X0.6417Y1.2008
X0.6417Y1.0827
X0.7598Y1.9094
X0.7598Y1.7913
X0.7598Y1.6732
X0.7598Y1.5551
X0.7598Y1.437
X0.7598Y1.3189
X0.7598Y1.2008
X0.7598Y1.0827
X0.878Y1.9094
X0.878Y1.7913
X0.878Y1.6732
X0.878Y1.5551
X0.878Y1.437
X0.878Y1.3189
X0.878Y1.2008
X0.878Y1.0827
X0.9961Y1.9094
X0.9961Y1.7913
X0.9961Y1.6732
X0.9961Y1.5551
X0.9961Y1.437
X0.9961Y1.3189
X0.9961Y1.2008
X0.9961Y1.0827
X1.1142Y1.9094
X1.1142Y1.7913
X1.1142Y1.6732
X1.1142Y1.5551
X1.1142Y1.437
X1.1142Y1.3189
X1.1142Y1.2008
X1.1142Y1.0827
X1.2323Y1.9094
X1.2323Y1.7913
X1.2323Y1.6732
X1.2323Y1.5551
X1.2323Y1.437
X1.2323Y1.3189
X1.2323Y1.2008
X1.2323Y1.0827
X1.3504Y1.9094
X1.3504Y1.7913
X1.3504Y1.6732
X1.3504Y1.5551
X1.3504Y1.437
X1.3504Y1.3189
X1.3504Y1.2008
X1.3504Y1.0827
T3
X0.1969Y0.6791
X0.1969Y0.4823
T4
X1.7323Y0.5118
X1.7323Y1.378
X1.7323Y1.811
X1.7323Y0.9449
T0
M30
