G04 #@! TF.GenerationSoftware,KiCad,Pcbnew,(5.1.5)-3*
G04 #@! TF.CreationDate,2020-08-29T18:01:49-04:00*
G04 #@! TF.ProjectId,Little_Monster,4c697474-6c65-45f4-9d6f-6e737465722e,2.0*
G04 #@! TF.SameCoordinates,PX459e440PY6f94740*
G04 #@! TF.FileFunction,Soldermask,Bot*
G04 #@! TF.FilePolarity,Negative*
%FSLAX46Y46*%
G04 Gerber Fmt 4.6, Leading zero omitted, Abs format (unit mm)*
G04 Created by KiCad (PCBNEW (5.1.5)-3) date 2020-08-29 18:01:49*
%MOMM*%
%LPD*%
G04 APERTURE LIST*
%ADD10C,8.000000*%
%ADD11C,2.000000*%
G04 #@! TA.AperFunction,Profile*
%ADD12C,0.150000*%
G04 #@! TD*
%ADD13C,0.100000*%
G04 APERTURE END LIST*
D10*
X44000000Y32250000D02*
X44000000Y26500000D01*
D11*
X30000000Y44500000D02*
X43500000Y44500000D01*
X25000000Y21500000D02*
X40000000Y9500000D01*
D12*
X0Y56000000D02*
G75*
G02X4000000Y60000000I4000000J0D01*
G01*
X4000000Y0D02*
G75*
G02X0Y4000000I0J4000000D01*
G01*
X50000000Y4000000D02*
G75*
G02X46000000Y0I-4000000J0D01*
G01*
X46000000Y60000000D02*
G75*
G02X50000000Y56000000I0J-4000000D01*
G01*
X4000000Y0D02*
X46000000Y0D01*
X4000000Y60000000D02*
X46000000Y60000000D01*
X50000000Y4000000D02*
X50000000Y56000000D01*
X0Y4000000D02*
X0Y56000000D01*
D13*
G36*
X4293582Y5980785D02*
G01*
X4583381Y5923141D01*
X4947356Y5772377D01*
X5274921Y5553505D01*
X5274923Y5553503D01*
X5274926Y5553501D01*
X5553501Y5274926D01*
X5553503Y5274923D01*
X5553505Y5274921D01*
X5772377Y4947356D01*
X5923141Y4583381D01*
X6000000Y4196982D01*
X6000000Y3803018D01*
X5923141Y3416619D01*
X5772377Y3052644D01*
X5553505Y2725079D01*
X5553503Y2725077D01*
X5553501Y2725074D01*
X5274926Y2446499D01*
X5274923Y2446497D01*
X5274921Y2446495D01*
X4947356Y2227623D01*
X4583381Y2076859D01*
X4293582Y2019215D01*
X4196983Y2000000D01*
X3803017Y2000000D01*
X3706418Y2019215D01*
X3416619Y2076859D01*
X3052644Y2227623D01*
X2725079Y2446495D01*
X2725077Y2446497D01*
X2725074Y2446499D01*
X2446499Y2725074D01*
X2446497Y2725077D01*
X2446495Y2725079D01*
X2227623Y3052644D01*
X2076859Y3416619D01*
X2000000Y3803018D01*
X2000000Y4196982D01*
X2076859Y4583381D01*
X2227623Y4947356D01*
X2446495Y5274921D01*
X2446497Y5274923D01*
X2446499Y5274926D01*
X2725074Y5553501D01*
X2725077Y5553503D01*
X2725079Y5553505D01*
X3052644Y5772377D01*
X3416619Y5923141D01*
X3706418Y5980785D01*
X3803017Y6000000D01*
X4196983Y6000000D01*
X4293582Y5980785D01*
G37*
G36*
X46293582Y5980785D02*
G01*
X46583381Y5923141D01*
X46947356Y5772377D01*
X47274921Y5553505D01*
X47274923Y5553503D01*
X47274926Y5553501D01*
X47553501Y5274926D01*
X47553503Y5274923D01*
X47553505Y5274921D01*
X47772377Y4947356D01*
X47923141Y4583381D01*
X48000000Y4196982D01*
X48000000Y3803018D01*
X47923141Y3416619D01*
X47772377Y3052644D01*
X47553505Y2725079D01*
X47553503Y2725077D01*
X47553501Y2725074D01*
X47274926Y2446499D01*
X47274923Y2446497D01*
X47274921Y2446495D01*
X46947356Y2227623D01*
X46583381Y2076859D01*
X46293582Y2019215D01*
X46196983Y2000000D01*
X45803017Y2000000D01*
X45706418Y2019215D01*
X45416619Y2076859D01*
X45052644Y2227623D01*
X44725079Y2446495D01*
X44725077Y2446497D01*
X44725074Y2446499D01*
X44446499Y2725074D01*
X44446497Y2725077D01*
X44446495Y2725079D01*
X44227623Y3052644D01*
X44076859Y3416619D01*
X44000000Y3803018D01*
X44000000Y4196982D01*
X44076859Y4583381D01*
X44227623Y4947356D01*
X44446495Y5274921D01*
X44446497Y5274923D01*
X44446499Y5274926D01*
X44725074Y5553501D01*
X44725077Y5553503D01*
X44725079Y5553505D01*
X45052644Y5772377D01*
X45416619Y5923141D01*
X45706418Y5980785D01*
X45803017Y6000000D01*
X46196983Y6000000D01*
X46293582Y5980785D01*
G37*
G36*
X49000000Y8000000D02*
G01*
X39000000Y8000000D01*
X39000000Y18000000D01*
X49000000Y18000000D01*
X49000000Y8000000D01*
G37*
G36*
X5555340Y13407998D02*
G01*
X5776829Y13340811D01*
X5776831Y13340810D01*
X5980955Y13231703D01*
X6159871Y13084871D01*
X6306703Y12905955D01*
X6306704Y12905953D01*
X6415811Y12701829D01*
X6482998Y12480340D01*
X6505685Y12250000D01*
X6482998Y12019660D01*
X6415811Y11798171D01*
X6415810Y11798169D01*
X6306703Y11594045D01*
X6159871Y11415129D01*
X5980955Y11268297D01*
X5980953Y11268296D01*
X5776829Y11159189D01*
X5555340Y11092002D01*
X5382720Y11075000D01*
X4617280Y11075000D01*
X4444660Y11092002D01*
X4223171Y11159189D01*
X4019047Y11268296D01*
X4019045Y11268297D01*
X3840129Y11415129D01*
X3693297Y11594045D01*
X3584190Y11798169D01*
X3584189Y11798171D01*
X3517002Y12019660D01*
X3494315Y12250000D01*
X3517002Y12480340D01*
X3584189Y12701829D01*
X3693296Y12905953D01*
X3693297Y12905955D01*
X3840129Y13084871D01*
X4019045Y13231703D01*
X4223169Y13340810D01*
X4223171Y13340811D01*
X4444660Y13407998D01*
X4617280Y13425000D01*
X5382720Y13425000D01*
X5555340Y13407998D01*
G37*
G36*
X6500000Y16075000D02*
G01*
X3500000Y16075000D01*
X3500000Y18425000D01*
X6500000Y18425000D01*
X6500000Y16075000D01*
G37*
G36*
X49000000Y19000000D02*
G01*
X39000000Y19000000D01*
X39000000Y29000000D01*
X49000000Y29000000D01*
X49000000Y19000000D01*
G37*
G36*
X26700000Y19200000D02*
G01*
X19400000Y19200000D01*
X19400000Y23900000D01*
X26700000Y23900000D01*
X26700000Y19200000D01*
G37*
G36*
X35800000Y26000000D02*
G01*
X8800000Y26000000D01*
X8800000Y50000000D01*
X35800000Y50000000D01*
X35800000Y26000000D01*
G37*
G36*
X4293582Y30980785D02*
G01*
X4583381Y30923141D01*
X4947356Y30772377D01*
X5274921Y30553505D01*
X5274923Y30553503D01*
X5274926Y30553501D01*
X5553501Y30274926D01*
X5553503Y30274923D01*
X5553505Y30274921D01*
X5772377Y29947356D01*
X5923141Y29583381D01*
X6000000Y29196982D01*
X6000000Y28803018D01*
X5923141Y28416619D01*
X5772377Y28052644D01*
X5553505Y27725079D01*
X5553503Y27725077D01*
X5553501Y27725074D01*
X5274926Y27446499D01*
X5274923Y27446497D01*
X5274921Y27446495D01*
X4947356Y27227623D01*
X4583381Y27076859D01*
X4293582Y27019215D01*
X4196983Y27000000D01*
X3803017Y27000000D01*
X3706418Y27019215D01*
X3416619Y27076859D01*
X3052644Y27227623D01*
X2725079Y27446495D01*
X2725077Y27446497D01*
X2725074Y27446499D01*
X2446499Y27725074D01*
X2446497Y27725077D01*
X2446495Y27725079D01*
X2227623Y28052644D01*
X2076859Y28416619D01*
X2000000Y28803018D01*
X2000000Y29196982D01*
X2076859Y29583381D01*
X2227623Y29947356D01*
X2446495Y30274921D01*
X2446497Y30274923D01*
X2446499Y30274926D01*
X2725074Y30553501D01*
X2725077Y30553503D01*
X2725079Y30553505D01*
X3052644Y30772377D01*
X3416619Y30923141D01*
X3706418Y30980785D01*
X3803017Y31000000D01*
X4196983Y31000000D01*
X4293582Y30980785D01*
G37*
G36*
X49000000Y30000000D02*
G01*
X39000000Y30000000D01*
X39000000Y40000000D01*
X49000000Y40000000D01*
X49000000Y30000000D01*
G37*
G36*
X4293582Y42980785D02*
G01*
X4583381Y42923141D01*
X4947356Y42772377D01*
X5274921Y42553505D01*
X5274923Y42553503D01*
X5274926Y42553501D01*
X5553501Y42274926D01*
X5553503Y42274923D01*
X5553505Y42274921D01*
X5772377Y41947356D01*
X5923141Y41583381D01*
X6000000Y41196982D01*
X6000000Y40803018D01*
X5923141Y40416619D01*
X5772377Y40052644D01*
X5553505Y39725079D01*
X5553503Y39725077D01*
X5553501Y39725074D01*
X5274926Y39446499D01*
X5274923Y39446497D01*
X5274921Y39446495D01*
X4947356Y39227623D01*
X4583381Y39076859D01*
X4293582Y39019215D01*
X4196983Y39000000D01*
X3803017Y39000000D01*
X3706418Y39019215D01*
X3416619Y39076859D01*
X3052644Y39227623D01*
X2725079Y39446495D01*
X2725077Y39446497D01*
X2725074Y39446499D01*
X2446499Y39725074D01*
X2446497Y39725077D01*
X2446495Y39725079D01*
X2227623Y40052644D01*
X2076859Y40416619D01*
X2000000Y40803018D01*
X2000000Y41196982D01*
X2076859Y41583381D01*
X2227623Y41947356D01*
X2446495Y42274921D01*
X2446497Y42274923D01*
X2446499Y42274926D01*
X2725074Y42553501D01*
X2725077Y42553503D01*
X2725079Y42553505D01*
X3052644Y42772377D01*
X3416619Y42923141D01*
X3706418Y42980785D01*
X3803017Y43000000D01*
X4196983Y43000000D01*
X4293582Y42980785D01*
G37*
G36*
X49000000Y41000000D02*
G01*
X39000000Y41000000D01*
X39000000Y51000000D01*
X49000000Y51000000D01*
X49000000Y41000000D01*
G37*
G36*
X46293582Y57980785D02*
G01*
X46583381Y57923141D01*
X46947356Y57772377D01*
X47274921Y57553505D01*
X47274923Y57553503D01*
X47274926Y57553501D01*
X47553501Y57274926D01*
X47553503Y57274923D01*
X47553505Y57274921D01*
X47772377Y56947356D01*
X47923141Y56583381D01*
X48000000Y56196982D01*
X48000000Y55803018D01*
X47923141Y55416619D01*
X47772377Y55052644D01*
X47553505Y54725079D01*
X47553503Y54725077D01*
X47553501Y54725074D01*
X47274926Y54446499D01*
X47274923Y54446497D01*
X47274921Y54446495D01*
X46947356Y54227623D01*
X46583381Y54076859D01*
X46293582Y54019215D01*
X46196983Y54000000D01*
X45803017Y54000000D01*
X45706418Y54019215D01*
X45416619Y54076859D01*
X45052644Y54227623D01*
X44725079Y54446495D01*
X44725077Y54446497D01*
X44725074Y54446499D01*
X44446499Y54725074D01*
X44446497Y54725077D01*
X44446495Y54725079D01*
X44227623Y55052644D01*
X44076859Y55416619D01*
X44000000Y55803018D01*
X44000000Y56196982D01*
X44076859Y56583381D01*
X44227623Y56947356D01*
X44446495Y57274921D01*
X44446497Y57274923D01*
X44446499Y57274926D01*
X44725074Y57553501D01*
X44725077Y57553503D01*
X44725079Y57553505D01*
X45052644Y57772377D01*
X45416619Y57923141D01*
X45706418Y57980785D01*
X45803017Y58000000D01*
X46196983Y58000000D01*
X46293582Y57980785D01*
G37*
G36*
X4293582Y57980785D02*
G01*
X4583381Y57923141D01*
X4947356Y57772377D01*
X5274921Y57553505D01*
X5274923Y57553503D01*
X5274926Y57553501D01*
X5553501Y57274926D01*
X5553503Y57274923D01*
X5553505Y57274921D01*
X5772377Y56947356D01*
X5923141Y56583381D01*
X6000000Y56196982D01*
X6000000Y55803018D01*
X5923141Y55416619D01*
X5772377Y55052644D01*
X5553505Y54725079D01*
X5553503Y54725077D01*
X5553501Y54725074D01*
X5274926Y54446499D01*
X5274923Y54446497D01*
X5274921Y54446495D01*
X4947356Y54227623D01*
X4583381Y54076859D01*
X4293582Y54019215D01*
X4196983Y54000000D01*
X3803017Y54000000D01*
X3706418Y54019215D01*
X3416619Y54076859D01*
X3052644Y54227623D01*
X2725079Y54446495D01*
X2725077Y54446497D01*
X2725074Y54446499D01*
X2446499Y54725074D01*
X2446497Y54725077D01*
X2446495Y54725079D01*
X2227623Y55052644D01*
X2076859Y55416619D01*
X2000000Y55803018D01*
X2000000Y56196982D01*
X2076859Y56583381D01*
X2227623Y56947356D01*
X2446495Y57274921D01*
X2446497Y57274923D01*
X2446499Y57274926D01*
X2725074Y57553501D01*
X2725077Y57553503D01*
X2725079Y57553505D01*
X3052644Y57772377D01*
X3416619Y57923141D01*
X3706418Y57980785D01*
X3803017Y58000000D01*
X4196983Y58000000D01*
X4293582Y57980785D01*
G37*
M02*
