%FSLAX45Y45*%
G04 Gerber Fmt 4.5, Leading zero omitted, Abs format (unit mm)*
G04 Created by KiCad (PCBNEW (5.1.5)-3) date 2020-09-07 21:35:08*
%MOMM*%
%LPD*%
G04 APERTURE LIST*
%TA.AperFunction,Profile*%
%ADD10C,0.150000*%
%TD*%
%ADD11C,0.200000*%
%ADD12C,0.300000*%
G04 APERTURE END LIST*
D10*
X0Y5600000D02*
G75*
G02X400000Y6000000I400000J0D01*
G01*
X400000Y0D02*
G75*
G02X0Y400000I0J400000D01*
G01*
X5000000Y400000D02*
G75*
G02X4600000Y0I-400000J0D01*
G01*
X4600000Y6000000D02*
G75*
G02X5000000Y5600000I0J-400000D01*
G01*
X400000Y0D02*
X4600000Y0D01*
X400000Y6000000D02*
X4600000Y6000000D01*
X5000000Y400000D02*
X5000000Y5600000D01*
X0Y400000D02*
X0Y5600000D01*
D11*
X1954000Y2166000D02*
X1994000Y2126000D01*
X1994000Y2166000D02*
X1954000Y2126000D01*
X1956000Y2347000D02*
X1996000Y2307000D01*
X1996000Y2347000D02*
X1956000Y2307000D01*
X1956000Y2257000D02*
X1996000Y2217000D01*
X1996000Y2257000D02*
X1956000Y2217000D01*
X1956000Y2077000D02*
X1996000Y2037000D01*
X1996000Y2077000D02*
X1956000Y2037000D01*
X1956000Y1987000D02*
X1996000Y1947000D01*
X1996000Y1987000D02*
X1956000Y1947000D01*
X2083000Y2348000D02*
X2123000Y2308000D01*
X2123000Y2348000D02*
X2083000Y2308000D01*
X2083000Y2258000D02*
X2123000Y2218000D01*
X2123000Y2258000D02*
X2083000Y2218000D01*
X2083000Y2078000D02*
X2123000Y2038000D01*
X2123000Y2078000D02*
X2083000Y2038000D01*
X2083000Y1988000D02*
X2123000Y1948000D01*
X2123000Y1988000D02*
X2083000Y1948000D01*
X2215000Y2347000D02*
X2255000Y2307000D01*
X2255000Y2347000D02*
X2215000Y2307000D01*
X2215000Y2257000D02*
X2255000Y2217000D01*
X2255000Y2257000D02*
X2215000Y2217000D01*
X2215000Y2167000D02*
X2255000Y2127000D01*
X2255000Y2167000D02*
X2215000Y2127000D01*
X2215000Y2077000D02*
X2255000Y2037000D01*
X2255000Y2077000D02*
X2215000Y2037000D01*
X2215000Y1987000D02*
X2255000Y1947000D01*
X2255000Y1987000D02*
X2215000Y1947000D01*
X2337000Y2347000D02*
X2377000Y2307000D01*
X2377000Y2347000D02*
X2337000Y2307000D01*
X2337000Y2257000D02*
X2377000Y2217000D01*
X2377000Y2257000D02*
X2337000Y2217000D01*
X2337000Y2167000D02*
X2377000Y2127000D01*
X2377000Y2167000D02*
X2337000Y2127000D01*
X2337000Y2077000D02*
X2377000Y2037000D01*
X2377000Y2077000D02*
X2337000Y2037000D01*
X2337000Y1987000D02*
X2377000Y1947000D01*
X2377000Y1987000D02*
X2337000Y1947000D01*
X2464000Y2348000D02*
X2504000Y2308000D01*
X2504000Y2348000D02*
X2464000Y2308000D01*
X2464000Y2258000D02*
X2504000Y2218000D01*
X2504000Y2258000D02*
X2464000Y2218000D01*
X2464000Y2168000D02*
X2504000Y2128000D01*
X2504000Y2168000D02*
X2464000Y2128000D01*
X2464000Y2078000D02*
X2504000Y2038000D01*
X2504000Y2078000D02*
X2464000Y2038000D01*
X2464000Y1988000D02*
X2504000Y1948000D01*
X2504000Y1988000D02*
X2464000Y1948000D01*
X2592000Y2349000D02*
X2632000Y2309000D01*
X2632000Y2349000D02*
X2592000Y2309000D01*
X2592000Y2261000D02*
X2632000Y2221000D01*
X2632000Y2261000D02*
X2592000Y2221000D01*
X2592000Y2074000D02*
X2632000Y2034000D01*
X2632000Y2074000D02*
X2592000Y2034000D01*
X2592000Y1984000D02*
X2632000Y1944000D01*
X2632000Y1984000D02*
X2592000Y1944000D01*
X1105000Y4850000D02*
G75*
G03X1105000Y4850000I-75000J0D01*
G01*
X1105000Y4550000D02*
G75*
G03X1105000Y4550000I-75000J0D01*
G01*
X1105000Y4250000D02*
G75*
G03X1105000Y4250000I-75000J0D01*
G01*
X1105000Y3950000D02*
G75*
G03X1105000Y3950000I-75000J0D01*
G01*
X1105000Y3650000D02*
G75*
G03X1105000Y3650000I-75000J0D01*
G01*
X1105000Y3350000D02*
G75*
G03X1105000Y3350000I-75000J0D01*
G01*
X1105000Y3050000D02*
G75*
G03X1105000Y3050000I-75000J0D01*
G01*
X1105000Y2750000D02*
G75*
G03X1105000Y2750000I-75000J0D01*
G01*
X1405000Y4850000D02*
G75*
G03X1405000Y4850000I-75000J0D01*
G01*
X1405000Y4550000D02*
G75*
G03X1405000Y4550000I-75000J0D01*
G01*
X1405000Y4250000D02*
G75*
G03X1405000Y4250000I-75000J0D01*
G01*
X1405000Y3950000D02*
G75*
G03X1405000Y3950000I-75000J0D01*
G01*
X1405000Y3650000D02*
G75*
G03X1405000Y3650000I-75000J0D01*
G01*
X1405000Y3350000D02*
G75*
G03X1405000Y3350000I-75000J0D01*
G01*
X1405000Y3050000D02*
G75*
G03X1405000Y3050000I-75000J0D01*
G01*
X1405000Y2750000D02*
G75*
G03X1405000Y2750000I-75000J0D01*
G01*
X1705000Y4850000D02*
G75*
G03X1705000Y4850000I-75000J0D01*
G01*
X1705000Y4550000D02*
G75*
G03X1705000Y4550000I-75000J0D01*
G01*
X1705000Y4250000D02*
G75*
G03X1705000Y4250000I-75000J0D01*
G01*
X1705000Y3950000D02*
G75*
G03X1705000Y3950000I-75000J0D01*
G01*
X1705000Y3650000D02*
G75*
G03X1705000Y3650000I-75000J0D01*
G01*
X1705000Y3350000D02*
G75*
G03X1705000Y3350000I-75000J0D01*
G01*
X1705000Y3050000D02*
G75*
G03X1705000Y3050000I-75000J0D01*
G01*
X1705000Y2750000D02*
G75*
G03X1705000Y2750000I-75000J0D01*
G01*
X2005000Y4850000D02*
G75*
G03X2005000Y4850000I-75000J0D01*
G01*
X2005000Y4550000D02*
G75*
G03X2005000Y4550000I-75000J0D01*
G01*
X2005000Y4250000D02*
G75*
G03X2005000Y4250000I-75000J0D01*
G01*
X2005000Y3950000D02*
G75*
G03X2005000Y3950000I-75000J0D01*
G01*
X2005000Y3650000D02*
G75*
G03X2005000Y3650000I-75000J0D01*
G01*
X2005000Y3350000D02*
G75*
G03X2005000Y3350000I-75000J0D01*
G01*
X2005000Y3050000D02*
G75*
G03X2005000Y3050000I-75000J0D01*
G01*
X2005000Y2750000D02*
G75*
G03X2005000Y2750000I-75000J0D01*
G01*
X2305000Y4850000D02*
G75*
G03X2305000Y4850000I-75000J0D01*
G01*
X2305000Y4550000D02*
G75*
G03X2305000Y4550000I-75000J0D01*
G01*
X2305000Y4250000D02*
G75*
G03X2305000Y4250000I-75000J0D01*
G01*
X2305000Y3950000D02*
G75*
G03X2305000Y3950000I-75000J0D01*
G01*
X2305000Y3650000D02*
G75*
G03X2305000Y3650000I-75000J0D01*
G01*
X2305000Y3350000D02*
G75*
G03X2305000Y3350000I-75000J0D01*
G01*
X2305000Y3050000D02*
G75*
G03X2305000Y3050000I-75000J0D01*
G01*
X2305000Y2750000D02*
G75*
G03X2305000Y2750000I-75000J0D01*
G01*
X2605000Y4850000D02*
G75*
G03X2605000Y4850000I-75000J0D01*
G01*
X2605000Y4550000D02*
G75*
G03X2605000Y4550000I-75000J0D01*
G01*
X2605000Y4250000D02*
G75*
G03X2605000Y4250000I-75000J0D01*
G01*
X2605000Y3950000D02*
G75*
G03X2605000Y3950000I-75000J0D01*
G01*
X2605000Y3650000D02*
G75*
G03X2605000Y3650000I-75000J0D01*
G01*
X2605000Y3350000D02*
G75*
G03X2605000Y3350000I-75000J0D01*
G01*
X2605000Y3050000D02*
G75*
G03X2605000Y3050000I-75000J0D01*
G01*
X2605000Y2750000D02*
G75*
G03X2605000Y2750000I-75000J0D01*
G01*
X2905000Y4850000D02*
G75*
G03X2905000Y4850000I-75000J0D01*
G01*
X2905000Y4550000D02*
G75*
G03X2905000Y4550000I-75000J0D01*
G01*
X2905000Y4250000D02*
G75*
G03X2905000Y4250000I-75000J0D01*
G01*
X2905000Y3950000D02*
G75*
G03X2905000Y3950000I-75000J0D01*
G01*
X2905000Y3650000D02*
G75*
G03X2905000Y3650000I-75000J0D01*
G01*
X2905000Y3350000D02*
G75*
G03X2905000Y3350000I-75000J0D01*
G01*
X2905000Y3050000D02*
G75*
G03X2905000Y3050000I-75000J0D01*
G01*
X2905000Y2750000D02*
G75*
G03X2905000Y2750000I-75000J0D01*
G01*
X3205000Y4850000D02*
G75*
G03X3205000Y4850000I-75000J0D01*
G01*
X3205000Y4550000D02*
G75*
G03X3205000Y4550000I-75000J0D01*
G01*
X3205000Y4250000D02*
G75*
G03X3205000Y4250000I-75000J0D01*
G01*
X3205000Y3950000D02*
G75*
G03X3205000Y3950000I-75000J0D01*
G01*
X3205000Y3650000D02*
G75*
G03X3205000Y3650000I-75000J0D01*
G01*
X3205000Y3350000D02*
G75*
G03X3205000Y3350000I-75000J0D01*
G01*
X3205000Y3050000D02*
G75*
G03X3205000Y3050000I-75000J0D01*
G01*
X3205000Y2750000D02*
G75*
G03X3205000Y2750000I-75000J0D01*
G01*
X3505000Y4850000D02*
G75*
G03X3505000Y4850000I-75000J0D01*
G01*
X3505000Y4550000D02*
G75*
G03X3505000Y4550000I-75000J0D01*
G01*
X3505000Y4250000D02*
G75*
G03X3505000Y4250000I-75000J0D01*
G01*
X3505000Y3950000D02*
G75*
G03X3505000Y3950000I-75000J0D01*
G01*
X3505000Y3650000D02*
G75*
G03X3505000Y3650000I-75000J0D01*
G01*
X3505000Y3350000D02*
G75*
G03X3505000Y3350000I-75000J0D01*
G01*
X3505000Y3050000D02*
G75*
G03X3505000Y3050000I-75000J0D01*
G01*
X3505000Y2750000D02*
G75*
G03X3505000Y2750000I-75000J0D01*
G01*
X500000Y1807500D02*
X500000Y1642500D01*
X417500Y1725000D02*
X582500Y1725000D01*
X500000Y1307500D02*
X500000Y1142500D01*
X417500Y1225000D02*
X582500Y1225000D01*
X4599760Y1100240D02*
X4599760Y1499760D01*
X4200240Y1499760D01*
X4200240Y1100240D01*
X4599760Y1100240D01*
X4599760Y2200240D02*
X4599760Y2599760D01*
X4200240Y2599760D01*
X4200240Y2200240D01*
X4599760Y2200240D01*
X4599760Y4400240D02*
X4599760Y4799760D01*
X4200240Y4799760D01*
X4200240Y4400240D01*
X4599760Y4400240D01*
X4599760Y3300240D02*
X4599760Y3699760D01*
X4200240Y3699760D01*
X4200240Y3300240D01*
X4599760Y3300240D01*
D12*
X278928Y-473214D02*
X278928Y-173214D01*
X350357Y-173214D01*
X393214Y-187500D01*
X421786Y-216071D01*
X436071Y-244643D01*
X450357Y-301786D01*
X450357Y-344643D01*
X436071Y-401786D01*
X421786Y-430357D01*
X393214Y-458929D01*
X350357Y-473214D01*
X278928Y-473214D01*
X578928Y-473214D02*
X578928Y-273214D01*
X578928Y-330357D02*
X593214Y-301786D01*
X607500Y-287500D01*
X636071Y-273214D01*
X664643Y-273214D01*
X764643Y-473214D02*
X764643Y-273214D01*
X764643Y-173214D02*
X750357Y-187500D01*
X764643Y-201786D01*
X778928Y-187500D01*
X764643Y-173214D01*
X764643Y-201786D01*
X950357Y-473214D02*
X921786Y-458929D01*
X907500Y-430357D01*
X907500Y-173214D01*
X1107500Y-473214D02*
X1078928Y-458929D01*
X1064643Y-430357D01*
X1064643Y-173214D01*
X1450357Y-473214D02*
X1450357Y-173214D01*
X1550357Y-387500D01*
X1650357Y-173214D01*
X1650357Y-473214D01*
X1921786Y-473214D02*
X1921786Y-316072D01*
X1907500Y-287500D01*
X1878928Y-273214D01*
X1821786Y-273214D01*
X1793214Y-287500D01*
X1921786Y-458929D02*
X1893214Y-473214D01*
X1821786Y-473214D01*
X1793214Y-458929D01*
X1778928Y-430357D01*
X1778928Y-401786D01*
X1793214Y-373214D01*
X1821786Y-358929D01*
X1893214Y-358929D01*
X1921786Y-344643D01*
X2064643Y-273214D02*
X2064643Y-573214D01*
X2064643Y-287500D02*
X2093214Y-273214D01*
X2150357Y-273214D01*
X2178928Y-287500D01*
X2193214Y-301786D01*
X2207500Y-330357D01*
X2207500Y-416071D01*
X2193214Y-444643D01*
X2178928Y-458929D01*
X2150357Y-473214D01*
X2093214Y-473214D01*
X2064643Y-458929D01*
X2336071Y-444643D02*
X2350357Y-458929D01*
X2336071Y-473214D01*
X2321786Y-458929D01*
X2336071Y-444643D01*
X2336071Y-473214D01*
X2336071Y-287500D02*
X2350357Y-301786D01*
X2336071Y-316072D01*
X2321786Y-301786D01*
X2336071Y-287500D01*
X2336071Y-316072D01*
X-47500Y-947500D02*
X-7500Y-987500D01*
X-7500Y-947500D02*
X-47500Y-987500D01*
X336071Y-803214D02*
X364643Y-803214D01*
X393214Y-817500D01*
X407500Y-831786D01*
X421786Y-860357D01*
X436071Y-917500D01*
X436071Y-988929D01*
X421786Y-1046071D01*
X407500Y-1074643D01*
X393214Y-1088929D01*
X364643Y-1103214D01*
X336071Y-1103214D01*
X307500Y-1088929D01*
X293214Y-1074643D01*
X278928Y-1046071D01*
X264643Y-988929D01*
X264643Y-917500D01*
X278928Y-860357D01*
X293214Y-831786D01*
X307500Y-817500D01*
X336071Y-803214D01*
X564643Y-1074643D02*
X578928Y-1088929D01*
X564643Y-1103214D01*
X550357Y-1088929D01*
X564643Y-1074643D01*
X564643Y-1103214D01*
X836071Y-903214D02*
X836071Y-1103214D01*
X764643Y-788929D02*
X693214Y-1003214D01*
X878928Y-1003214D01*
X1050357Y-803214D02*
X1078928Y-803214D01*
X1107500Y-817500D01*
X1121786Y-831786D01*
X1136071Y-860357D01*
X1150357Y-917500D01*
X1150357Y-988929D01*
X1136071Y-1046071D01*
X1121786Y-1074643D01*
X1107500Y-1088929D01*
X1078928Y-1103214D01*
X1050357Y-1103214D01*
X1021786Y-1088929D01*
X1007500Y-1074643D01*
X993214Y-1046071D01*
X978928Y-988929D01*
X978928Y-917500D01*
X993214Y-860357D01*
X1007500Y-831786D01*
X1021786Y-817500D01*
X1050357Y-803214D01*
X1278928Y-1103214D02*
X1278928Y-903214D01*
X1278928Y-931786D02*
X1293214Y-917500D01*
X1321786Y-903214D01*
X1364643Y-903214D01*
X1393214Y-917500D01*
X1407500Y-946071D01*
X1407500Y-1103214D01*
X1407500Y-946071D02*
X1421786Y-917500D01*
X1450357Y-903214D01*
X1493214Y-903214D01*
X1521786Y-917500D01*
X1536071Y-946071D01*
X1536071Y-1103214D01*
X1678928Y-1103214D02*
X1678928Y-903214D01*
X1678928Y-931786D02*
X1693214Y-917500D01*
X1721786Y-903214D01*
X1764643Y-903214D01*
X1793214Y-917500D01*
X1807500Y-946071D01*
X1807500Y-1103214D01*
X1807500Y-946071D02*
X1821786Y-917500D01*
X1850357Y-903214D01*
X1893214Y-903214D01*
X1921786Y-917500D01*
X1936071Y-946071D01*
X1936071Y-1103214D01*
X2521786Y-788929D02*
X2264643Y-1174643D01*
X2907500Y-803214D02*
X2936071Y-803214D01*
X2964643Y-817500D01*
X2978928Y-831786D01*
X2993214Y-860357D01*
X3007500Y-917500D01*
X3007500Y-988929D01*
X2993214Y-1046071D01*
X2978928Y-1074643D01*
X2964643Y-1088929D01*
X2936071Y-1103214D01*
X2907500Y-1103214D01*
X2878928Y-1088929D01*
X2864643Y-1074643D01*
X2850357Y-1046071D01*
X2836071Y-988929D01*
X2836071Y-917500D01*
X2850357Y-860357D01*
X2864643Y-831786D01*
X2878928Y-817500D01*
X2907500Y-803214D01*
X3136071Y-1074643D02*
X3150357Y-1088929D01*
X3136071Y-1103214D01*
X3121786Y-1088929D01*
X3136071Y-1074643D01*
X3136071Y-1103214D01*
X3336071Y-803214D02*
X3364643Y-803214D01*
X3393214Y-817500D01*
X3407500Y-831786D01*
X3421786Y-860357D01*
X3436071Y-917500D01*
X3436071Y-988929D01*
X3421786Y-1046071D01*
X3407500Y-1074643D01*
X3393214Y-1088929D01*
X3364643Y-1103214D01*
X3336071Y-1103214D01*
X3307500Y-1088929D01*
X3293214Y-1074643D01*
X3278928Y-1046071D01*
X3264643Y-988929D01*
X3264643Y-917500D01*
X3278928Y-860357D01*
X3293214Y-831786D01*
X3307500Y-817500D01*
X3336071Y-803214D01*
X3721786Y-1103214D02*
X3550357Y-1103214D01*
X3636071Y-1103214D02*
X3636071Y-803214D01*
X3607500Y-846071D01*
X3578928Y-874643D01*
X3550357Y-888929D01*
X3978928Y-803214D02*
X3921786Y-803214D01*
X3893214Y-817500D01*
X3878928Y-831786D01*
X3850357Y-874643D01*
X3836071Y-931786D01*
X3836071Y-1046071D01*
X3850357Y-1074643D01*
X3864643Y-1088929D01*
X3893214Y-1103214D01*
X3950357Y-1103214D01*
X3978928Y-1088929D01*
X3993214Y-1074643D01*
X4007500Y-1046071D01*
X4007500Y-974643D01*
X3993214Y-946071D01*
X3978928Y-931786D01*
X3950357Y-917500D01*
X3893214Y-917500D01*
X3864643Y-931786D01*
X3850357Y-946071D01*
X3836071Y-974643D01*
X4121786Y-803214D02*
X4121786Y-860357D01*
X4236071Y-803214D02*
X4236071Y-860357D01*
X4678928Y-1217500D02*
X4664643Y-1203214D01*
X4636071Y-1160357D01*
X4621786Y-1131786D01*
X4607500Y-1088929D01*
X4593214Y-1017500D01*
X4593214Y-960357D01*
X4607500Y-888929D01*
X4621786Y-846071D01*
X4636071Y-817500D01*
X4664643Y-774643D01*
X4678928Y-760357D01*
X4778928Y-831786D02*
X4793214Y-817500D01*
X4821786Y-803214D01*
X4893214Y-803214D01*
X4921786Y-817500D01*
X4936071Y-831786D01*
X4950357Y-860357D01*
X4950357Y-888929D01*
X4936071Y-931786D01*
X4764643Y-1103214D01*
X4950357Y-1103214D01*
X5121786Y-931786D02*
X5093214Y-917500D01*
X5078928Y-903214D01*
X5064643Y-874643D01*
X5064643Y-860357D01*
X5078928Y-831786D01*
X5093214Y-817500D01*
X5121786Y-803214D01*
X5178928Y-803214D01*
X5207500Y-817500D01*
X5221786Y-831786D01*
X5236071Y-860357D01*
X5236071Y-874643D01*
X5221786Y-903214D01*
X5207500Y-917500D01*
X5178928Y-931786D01*
X5121786Y-931786D01*
X5093214Y-946071D01*
X5078928Y-960357D01*
X5064643Y-988929D01*
X5064643Y-1046071D01*
X5078928Y-1074643D01*
X5093214Y-1088929D01*
X5121786Y-1103214D01*
X5178928Y-1103214D01*
X5207500Y-1088929D01*
X5221786Y-1074643D01*
X5236071Y-1046071D01*
X5236071Y-988929D01*
X5221786Y-960357D01*
X5207500Y-946071D01*
X5178928Y-931786D01*
X5593214Y-1103214D02*
X5593214Y-803214D01*
X5721786Y-1103214D02*
X5721786Y-946071D01*
X5707500Y-917500D01*
X5678928Y-903214D01*
X5636071Y-903214D01*
X5607500Y-917500D01*
X5593214Y-931786D01*
X5907500Y-1103214D02*
X5878928Y-1088929D01*
X5864643Y-1074643D01*
X5850357Y-1046071D01*
X5850357Y-960357D01*
X5864643Y-931786D01*
X5878928Y-917500D01*
X5907500Y-903214D01*
X5950357Y-903214D01*
X5978928Y-917500D01*
X5993214Y-931786D01*
X6007500Y-960357D01*
X6007500Y-1046071D01*
X5993214Y-1074643D01*
X5978928Y-1088929D01*
X5950357Y-1103214D01*
X5907500Y-1103214D01*
X6178928Y-1103214D02*
X6150357Y-1088929D01*
X6136071Y-1060357D01*
X6136071Y-803214D01*
X6407500Y-1088929D02*
X6378928Y-1103214D01*
X6321786Y-1103214D01*
X6293214Y-1088929D01*
X6278928Y-1060357D01*
X6278928Y-946071D01*
X6293214Y-917500D01*
X6321786Y-903214D01*
X6378928Y-903214D01*
X6407500Y-917500D01*
X6421786Y-946071D01*
X6421786Y-974643D01*
X6278928Y-1003214D01*
X6536071Y-1088929D02*
X6564643Y-1103214D01*
X6621786Y-1103214D01*
X6650357Y-1088929D01*
X6664643Y-1060357D01*
X6664643Y-1046071D01*
X6650357Y-1017500D01*
X6621786Y-1003214D01*
X6578928Y-1003214D01*
X6550357Y-988929D01*
X6536071Y-960357D01*
X6536071Y-946071D01*
X6550357Y-917500D01*
X6578928Y-903214D01*
X6621786Y-903214D01*
X6650357Y-917500D01*
X6764643Y-1217500D02*
X6778928Y-1203214D01*
X6807500Y-1160357D01*
X6821786Y-1131786D01*
X6836071Y-1088929D01*
X6850357Y-1017500D01*
X6850357Y-960357D01*
X6836071Y-888929D01*
X6821786Y-846071D01*
X6807500Y-817500D01*
X6778928Y-774643D01*
X6764643Y-760357D01*
X-7500Y-1363500D02*
G75*
G03X-7500Y-1363500I-75000J0D01*
G01*
X436071Y-1499214D02*
X264643Y-1499214D01*
X350357Y-1499214D02*
X350357Y-1199214D01*
X321786Y-1242072D01*
X293214Y-1270643D01*
X264643Y-1284929D01*
X564643Y-1470643D02*
X578928Y-1484929D01*
X564643Y-1499214D01*
X550357Y-1484929D01*
X564643Y-1470643D01*
X564643Y-1499214D01*
X850357Y-1199214D02*
X707500Y-1199214D01*
X693214Y-1342072D01*
X707500Y-1327786D01*
X736071Y-1313500D01*
X807500Y-1313500D01*
X836071Y-1327786D01*
X850357Y-1342072D01*
X864643Y-1370643D01*
X864643Y-1442071D01*
X850357Y-1470643D01*
X836071Y-1484929D01*
X807500Y-1499214D01*
X736071Y-1499214D01*
X707500Y-1484929D01*
X693214Y-1470643D01*
X1050357Y-1199214D02*
X1078928Y-1199214D01*
X1107500Y-1213500D01*
X1121786Y-1227786D01*
X1136071Y-1256357D01*
X1150357Y-1313500D01*
X1150357Y-1384929D01*
X1136071Y-1442071D01*
X1121786Y-1470643D01*
X1107500Y-1484929D01*
X1078928Y-1499214D01*
X1050357Y-1499214D01*
X1021786Y-1484929D01*
X1007500Y-1470643D01*
X993214Y-1442071D01*
X978928Y-1384929D01*
X978928Y-1313500D01*
X993214Y-1256357D01*
X1007500Y-1227786D01*
X1021786Y-1213500D01*
X1050357Y-1199214D01*
X1278928Y-1499214D02*
X1278928Y-1299214D01*
X1278928Y-1327786D02*
X1293214Y-1313500D01*
X1321786Y-1299214D01*
X1364643Y-1299214D01*
X1393214Y-1313500D01*
X1407500Y-1342072D01*
X1407500Y-1499214D01*
X1407500Y-1342072D02*
X1421786Y-1313500D01*
X1450357Y-1299214D01*
X1493214Y-1299214D01*
X1521786Y-1313500D01*
X1536071Y-1342072D01*
X1536071Y-1499214D01*
X1678928Y-1499214D02*
X1678928Y-1299214D01*
X1678928Y-1327786D02*
X1693214Y-1313500D01*
X1721786Y-1299214D01*
X1764643Y-1299214D01*
X1793214Y-1313500D01*
X1807500Y-1342072D01*
X1807500Y-1499214D01*
X1807500Y-1342072D02*
X1821786Y-1313500D01*
X1850357Y-1299214D01*
X1893214Y-1299214D01*
X1921786Y-1313500D01*
X1936071Y-1342072D01*
X1936071Y-1499214D01*
X2521786Y-1184929D02*
X2264643Y-1570643D01*
X2907500Y-1199214D02*
X2936071Y-1199214D01*
X2964643Y-1213500D01*
X2978928Y-1227786D01*
X2993214Y-1256357D01*
X3007500Y-1313500D01*
X3007500Y-1384929D01*
X2993214Y-1442071D01*
X2978928Y-1470643D01*
X2964643Y-1484929D01*
X2936071Y-1499214D01*
X2907500Y-1499214D01*
X2878928Y-1484929D01*
X2864643Y-1470643D01*
X2850357Y-1442071D01*
X2836071Y-1384929D01*
X2836071Y-1313500D01*
X2850357Y-1256357D01*
X2864643Y-1227786D01*
X2878928Y-1213500D01*
X2907500Y-1199214D01*
X3136071Y-1470643D02*
X3150357Y-1484929D01*
X3136071Y-1499214D01*
X3121786Y-1484929D01*
X3136071Y-1470643D01*
X3136071Y-1499214D01*
X3336071Y-1199214D02*
X3364643Y-1199214D01*
X3393214Y-1213500D01*
X3407500Y-1227786D01*
X3421786Y-1256357D01*
X3436071Y-1313500D01*
X3436071Y-1384929D01*
X3421786Y-1442071D01*
X3407500Y-1470643D01*
X3393214Y-1484929D01*
X3364643Y-1499214D01*
X3336071Y-1499214D01*
X3307500Y-1484929D01*
X3293214Y-1470643D01*
X3278928Y-1442071D01*
X3264643Y-1384929D01*
X3264643Y-1313500D01*
X3278928Y-1256357D01*
X3293214Y-1227786D01*
X3307500Y-1213500D01*
X3336071Y-1199214D01*
X3707500Y-1199214D02*
X3564643Y-1199214D01*
X3550357Y-1342072D01*
X3564643Y-1327786D01*
X3593214Y-1313500D01*
X3664643Y-1313500D01*
X3693214Y-1327786D01*
X3707500Y-1342072D01*
X3721786Y-1370643D01*
X3721786Y-1442071D01*
X3707500Y-1470643D01*
X3693214Y-1484929D01*
X3664643Y-1499214D01*
X3593214Y-1499214D01*
X3564643Y-1484929D01*
X3550357Y-1470643D01*
X3864643Y-1499214D02*
X3921786Y-1499214D01*
X3950357Y-1484929D01*
X3964643Y-1470643D01*
X3993214Y-1427786D01*
X4007500Y-1370643D01*
X4007500Y-1256357D01*
X3993214Y-1227786D01*
X3978928Y-1213500D01*
X3950357Y-1199214D01*
X3893214Y-1199214D01*
X3864643Y-1213500D01*
X3850357Y-1227786D01*
X3836071Y-1256357D01*
X3836071Y-1327786D01*
X3850357Y-1356357D01*
X3864643Y-1370643D01*
X3893214Y-1384929D01*
X3950357Y-1384929D01*
X3978928Y-1370643D01*
X3993214Y-1356357D01*
X4007500Y-1327786D01*
X4121786Y-1199214D02*
X4121786Y-1256357D01*
X4236071Y-1199214D02*
X4236071Y-1256357D01*
X4678928Y-1613500D02*
X4664643Y-1599214D01*
X4636071Y-1556357D01*
X4621786Y-1527786D01*
X4607500Y-1484929D01*
X4593214Y-1413500D01*
X4593214Y-1356357D01*
X4607500Y-1284929D01*
X4621786Y-1242072D01*
X4636071Y-1213500D01*
X4664643Y-1170643D01*
X4678928Y-1156357D01*
X4764643Y-1199214D02*
X4964643Y-1199214D01*
X4836071Y-1499214D01*
X5064643Y-1227786D02*
X5078928Y-1213500D01*
X5107500Y-1199214D01*
X5178928Y-1199214D01*
X5207500Y-1213500D01*
X5221786Y-1227786D01*
X5236071Y-1256357D01*
X5236071Y-1284929D01*
X5221786Y-1327786D01*
X5050357Y-1499214D01*
X5236071Y-1499214D01*
X5593214Y-1499214D02*
X5593214Y-1199214D01*
X5721786Y-1499214D02*
X5721786Y-1342072D01*
X5707500Y-1313500D01*
X5678928Y-1299214D01*
X5636071Y-1299214D01*
X5607500Y-1313500D01*
X5593214Y-1327786D01*
X5907500Y-1499214D02*
X5878928Y-1484929D01*
X5864643Y-1470643D01*
X5850357Y-1442071D01*
X5850357Y-1356357D01*
X5864643Y-1327786D01*
X5878928Y-1313500D01*
X5907500Y-1299214D01*
X5950357Y-1299214D01*
X5978928Y-1313500D01*
X5993214Y-1327786D01*
X6007500Y-1356357D01*
X6007500Y-1442071D01*
X5993214Y-1470643D01*
X5978928Y-1484929D01*
X5950357Y-1499214D01*
X5907500Y-1499214D01*
X6178928Y-1499214D02*
X6150357Y-1484929D01*
X6136071Y-1456357D01*
X6136071Y-1199214D01*
X6407500Y-1484929D02*
X6378928Y-1499214D01*
X6321786Y-1499214D01*
X6293214Y-1484929D01*
X6278928Y-1456357D01*
X6278928Y-1342072D01*
X6293214Y-1313500D01*
X6321786Y-1299214D01*
X6378928Y-1299214D01*
X6407500Y-1313500D01*
X6421786Y-1342072D01*
X6421786Y-1370643D01*
X6278928Y-1399214D01*
X6536071Y-1484929D02*
X6564643Y-1499214D01*
X6621786Y-1499214D01*
X6650357Y-1484929D01*
X6664643Y-1456357D01*
X6664643Y-1442071D01*
X6650357Y-1413500D01*
X6621786Y-1399214D01*
X6578928Y-1399214D01*
X6550357Y-1384929D01*
X6536071Y-1356357D01*
X6536071Y-1342072D01*
X6550357Y-1313500D01*
X6578928Y-1299214D01*
X6621786Y-1299214D01*
X6650357Y-1313500D01*
X6764643Y-1613500D02*
X6778928Y-1599214D01*
X6807500Y-1556357D01*
X6821786Y-1527786D01*
X6836071Y-1484929D01*
X6850357Y-1413500D01*
X6850357Y-1356357D01*
X6836071Y-1284929D01*
X6821786Y-1242072D01*
X6807500Y-1213500D01*
X6778928Y-1170643D01*
X6764643Y-1156357D01*
X-90000Y-1677000D02*
X-90000Y-1842000D01*
X-172500Y-1759500D02*
X-7500Y-1759500D01*
X436071Y-1895214D02*
X264643Y-1895214D01*
X350357Y-1895214D02*
X350357Y-1595214D01*
X321786Y-1638071D01*
X293214Y-1666643D01*
X264643Y-1680929D01*
X564643Y-1866643D02*
X578928Y-1880929D01*
X564643Y-1895214D01*
X550357Y-1880929D01*
X564643Y-1866643D01*
X564643Y-1895214D01*
X836071Y-1595214D02*
X778928Y-1595214D01*
X750357Y-1609500D01*
X736071Y-1623786D01*
X707500Y-1666643D01*
X693214Y-1723786D01*
X693214Y-1838071D01*
X707500Y-1866643D01*
X721786Y-1880929D01*
X750357Y-1895214D01*
X807500Y-1895214D01*
X836071Y-1880929D01*
X850357Y-1866643D01*
X864643Y-1838071D01*
X864643Y-1766643D01*
X850357Y-1738071D01*
X836071Y-1723786D01*
X807500Y-1709500D01*
X750357Y-1709500D01*
X721786Y-1723786D01*
X707500Y-1738071D01*
X693214Y-1766643D01*
X1136071Y-1595214D02*
X993214Y-1595214D01*
X978928Y-1738071D01*
X993214Y-1723786D01*
X1021786Y-1709500D01*
X1093214Y-1709500D01*
X1121786Y-1723786D01*
X1136071Y-1738071D01*
X1150357Y-1766643D01*
X1150357Y-1838071D01*
X1136071Y-1866643D01*
X1121786Y-1880929D01*
X1093214Y-1895214D01*
X1021786Y-1895214D01*
X993214Y-1880929D01*
X978928Y-1866643D01*
X1278928Y-1895214D02*
X1278928Y-1695214D01*
X1278928Y-1723786D02*
X1293214Y-1709500D01*
X1321786Y-1695214D01*
X1364643Y-1695214D01*
X1393214Y-1709500D01*
X1407500Y-1738071D01*
X1407500Y-1895214D01*
X1407500Y-1738071D02*
X1421786Y-1709500D01*
X1450357Y-1695214D01*
X1493214Y-1695214D01*
X1521786Y-1709500D01*
X1536071Y-1738071D01*
X1536071Y-1895214D01*
X1678928Y-1895214D02*
X1678928Y-1695214D01*
X1678928Y-1723786D02*
X1693214Y-1709500D01*
X1721786Y-1695214D01*
X1764643Y-1695214D01*
X1793214Y-1709500D01*
X1807500Y-1738071D01*
X1807500Y-1895214D01*
X1807500Y-1738071D02*
X1821786Y-1709500D01*
X1850357Y-1695214D01*
X1893214Y-1695214D01*
X1921786Y-1709500D01*
X1936071Y-1738071D01*
X1936071Y-1895214D01*
X2521786Y-1580929D02*
X2264643Y-1966643D01*
X2907500Y-1595214D02*
X2936071Y-1595214D01*
X2964643Y-1609500D01*
X2978928Y-1623786D01*
X2993214Y-1652357D01*
X3007500Y-1709500D01*
X3007500Y-1780929D01*
X2993214Y-1838071D01*
X2978928Y-1866643D01*
X2964643Y-1880929D01*
X2936071Y-1895214D01*
X2907500Y-1895214D01*
X2878928Y-1880929D01*
X2864643Y-1866643D01*
X2850357Y-1838071D01*
X2836071Y-1780929D01*
X2836071Y-1709500D01*
X2850357Y-1652357D01*
X2864643Y-1623786D01*
X2878928Y-1609500D01*
X2907500Y-1595214D01*
X3136071Y-1866643D02*
X3150357Y-1880929D01*
X3136071Y-1895214D01*
X3121786Y-1880929D01*
X3136071Y-1866643D01*
X3136071Y-1895214D01*
X3336071Y-1595214D02*
X3364643Y-1595214D01*
X3393214Y-1609500D01*
X3407500Y-1623786D01*
X3421786Y-1652357D01*
X3436071Y-1709500D01*
X3436071Y-1780929D01*
X3421786Y-1838071D01*
X3407500Y-1866643D01*
X3393214Y-1880929D01*
X3364643Y-1895214D01*
X3336071Y-1895214D01*
X3307500Y-1880929D01*
X3293214Y-1866643D01*
X3278928Y-1838071D01*
X3264643Y-1780929D01*
X3264643Y-1709500D01*
X3278928Y-1652357D01*
X3293214Y-1623786D01*
X3307500Y-1609500D01*
X3336071Y-1595214D01*
X3693214Y-1595214D02*
X3636071Y-1595214D01*
X3607500Y-1609500D01*
X3593214Y-1623786D01*
X3564643Y-1666643D01*
X3550357Y-1723786D01*
X3550357Y-1838071D01*
X3564643Y-1866643D01*
X3578928Y-1880929D01*
X3607500Y-1895214D01*
X3664643Y-1895214D01*
X3693214Y-1880929D01*
X3707500Y-1866643D01*
X3721786Y-1838071D01*
X3721786Y-1766643D01*
X3707500Y-1738071D01*
X3693214Y-1723786D01*
X3664643Y-1709500D01*
X3607500Y-1709500D01*
X3578928Y-1723786D01*
X3564643Y-1738071D01*
X3550357Y-1766643D01*
X3993214Y-1595214D02*
X3850357Y-1595214D01*
X3836071Y-1738071D01*
X3850357Y-1723786D01*
X3878928Y-1709500D01*
X3950357Y-1709500D01*
X3978928Y-1723786D01*
X3993214Y-1738071D01*
X4007500Y-1766643D01*
X4007500Y-1838071D01*
X3993214Y-1866643D01*
X3978928Y-1880929D01*
X3950357Y-1895214D01*
X3878928Y-1895214D01*
X3850357Y-1880929D01*
X3836071Y-1866643D01*
X4121786Y-1595214D02*
X4121786Y-1652357D01*
X4236071Y-1595214D02*
X4236071Y-1652357D01*
X4678928Y-2009500D02*
X4664643Y-1995214D01*
X4636071Y-1952357D01*
X4621786Y-1923786D01*
X4607500Y-1880929D01*
X4593214Y-1809500D01*
X4593214Y-1752357D01*
X4607500Y-1680929D01*
X4621786Y-1638071D01*
X4636071Y-1609500D01*
X4664643Y-1566643D01*
X4678928Y-1552357D01*
X4778928Y-1623786D02*
X4793214Y-1609500D01*
X4821786Y-1595214D01*
X4893214Y-1595214D01*
X4921786Y-1609500D01*
X4936071Y-1623786D01*
X4950357Y-1652357D01*
X4950357Y-1680929D01*
X4936071Y-1723786D01*
X4764643Y-1895214D01*
X4950357Y-1895214D01*
X5307500Y-1895214D02*
X5307500Y-1595214D01*
X5436071Y-1895214D02*
X5436071Y-1738071D01*
X5421786Y-1709500D01*
X5393214Y-1695214D01*
X5350357Y-1695214D01*
X5321786Y-1709500D01*
X5307500Y-1723786D01*
X5621786Y-1895214D02*
X5593214Y-1880929D01*
X5578928Y-1866643D01*
X5564643Y-1838071D01*
X5564643Y-1752357D01*
X5578928Y-1723786D01*
X5593214Y-1709500D01*
X5621786Y-1695214D01*
X5664643Y-1695214D01*
X5693214Y-1709500D01*
X5707500Y-1723786D01*
X5721786Y-1752357D01*
X5721786Y-1838071D01*
X5707500Y-1866643D01*
X5693214Y-1880929D01*
X5664643Y-1895214D01*
X5621786Y-1895214D01*
X5893214Y-1895214D02*
X5864643Y-1880929D01*
X5850357Y-1852357D01*
X5850357Y-1595214D01*
X6121786Y-1880929D02*
X6093214Y-1895214D01*
X6036071Y-1895214D01*
X6007500Y-1880929D01*
X5993214Y-1852357D01*
X5993214Y-1738071D01*
X6007500Y-1709500D01*
X6036071Y-1695214D01*
X6093214Y-1695214D01*
X6121786Y-1709500D01*
X6136071Y-1738071D01*
X6136071Y-1766643D01*
X5993214Y-1795214D01*
X6250357Y-1880929D02*
X6278928Y-1895214D01*
X6336071Y-1895214D01*
X6364643Y-1880929D01*
X6378928Y-1852357D01*
X6378928Y-1838071D01*
X6364643Y-1809500D01*
X6336071Y-1795214D01*
X6293214Y-1795214D01*
X6264643Y-1780929D01*
X6250357Y-1752357D01*
X6250357Y-1738071D01*
X6264643Y-1709500D01*
X6293214Y-1695214D01*
X6336071Y-1695214D01*
X6364643Y-1709500D01*
X6478928Y-2009500D02*
X6493214Y-1995214D01*
X6521786Y-1952357D01*
X6536071Y-1923786D01*
X6550357Y-1880929D01*
X6564643Y-1809500D01*
X6564643Y-1752357D01*
X6550357Y-1680929D01*
X6536071Y-1638071D01*
X6521786Y-1609500D01*
X6493214Y-1566643D01*
X6478928Y-1552357D01*
X-90240Y-2355260D02*
X-90240Y-1955740D01*
X-489760Y-1955740D01*
X-489760Y-2355260D01*
X-90240Y-2355260D01*
X421786Y-1991214D02*
X278928Y-1991214D01*
X264643Y-2134072D01*
X278928Y-2119786D01*
X307500Y-2105500D01*
X378928Y-2105500D01*
X407500Y-2119786D01*
X421786Y-2134072D01*
X436071Y-2162643D01*
X436071Y-2234072D01*
X421786Y-2262643D01*
X407500Y-2276929D01*
X378928Y-2291214D01*
X307500Y-2291214D01*
X278928Y-2276929D01*
X264643Y-2262643D01*
X564643Y-2262643D02*
X578928Y-2276929D01*
X564643Y-2291214D01*
X550357Y-2276929D01*
X564643Y-2262643D01*
X564643Y-2291214D01*
X836071Y-1991214D02*
X778928Y-1991214D01*
X750357Y-2005500D01*
X736071Y-2019786D01*
X707500Y-2062643D01*
X693214Y-2119786D01*
X693214Y-2234072D01*
X707500Y-2262643D01*
X721786Y-2276929D01*
X750357Y-2291214D01*
X807500Y-2291214D01*
X836071Y-2276929D01*
X850357Y-2262643D01*
X864643Y-2234072D01*
X864643Y-2162643D01*
X850357Y-2134072D01*
X836071Y-2119786D01*
X807500Y-2105500D01*
X750357Y-2105500D01*
X721786Y-2119786D01*
X707500Y-2134072D01*
X693214Y-2162643D01*
X1136071Y-1991214D02*
X993214Y-1991214D01*
X978928Y-2134072D01*
X993214Y-2119786D01*
X1021786Y-2105500D01*
X1093214Y-2105500D01*
X1121786Y-2119786D01*
X1136071Y-2134072D01*
X1150357Y-2162643D01*
X1150357Y-2234072D01*
X1136071Y-2262643D01*
X1121786Y-2276929D01*
X1093214Y-2291214D01*
X1021786Y-2291214D01*
X993214Y-2276929D01*
X978928Y-2262643D01*
X1278928Y-2291214D02*
X1278928Y-2091214D01*
X1278928Y-2119786D02*
X1293214Y-2105500D01*
X1321786Y-2091214D01*
X1364643Y-2091214D01*
X1393214Y-2105500D01*
X1407500Y-2134072D01*
X1407500Y-2291214D01*
X1407500Y-2134072D02*
X1421786Y-2105500D01*
X1450357Y-2091214D01*
X1493214Y-2091214D01*
X1521786Y-2105500D01*
X1536071Y-2134072D01*
X1536071Y-2291214D01*
X1678928Y-2291214D02*
X1678928Y-2091214D01*
X1678928Y-2119786D02*
X1693214Y-2105500D01*
X1721786Y-2091214D01*
X1764643Y-2091214D01*
X1793214Y-2105500D01*
X1807500Y-2134072D01*
X1807500Y-2291214D01*
X1807500Y-2134072D02*
X1821786Y-2105500D01*
X1850357Y-2091214D01*
X1893214Y-2091214D01*
X1921786Y-2105500D01*
X1936071Y-2134072D01*
X1936071Y-2291214D01*
X2521786Y-1976929D02*
X2264643Y-2362643D01*
X2907500Y-1991214D02*
X2936071Y-1991214D01*
X2964643Y-2005500D01*
X2978928Y-2019786D01*
X2993214Y-2048357D01*
X3007500Y-2105500D01*
X3007500Y-2176929D01*
X2993214Y-2234072D01*
X2978928Y-2262643D01*
X2964643Y-2276929D01*
X2936071Y-2291214D01*
X2907500Y-2291214D01*
X2878928Y-2276929D01*
X2864643Y-2262643D01*
X2850357Y-2234072D01*
X2836071Y-2176929D01*
X2836071Y-2105500D01*
X2850357Y-2048357D01*
X2864643Y-2019786D01*
X2878928Y-2005500D01*
X2907500Y-1991214D01*
X3136071Y-2262643D02*
X3150357Y-2276929D01*
X3136071Y-2291214D01*
X3121786Y-2276929D01*
X3136071Y-2262643D01*
X3136071Y-2291214D01*
X3264643Y-2019786D02*
X3278928Y-2005500D01*
X3307500Y-1991214D01*
X3378928Y-1991214D01*
X3407500Y-2005500D01*
X3421786Y-2019786D01*
X3436071Y-2048357D01*
X3436071Y-2076929D01*
X3421786Y-2119786D01*
X3250357Y-2291214D01*
X3436071Y-2291214D01*
X3550357Y-2019786D02*
X3564643Y-2005500D01*
X3593214Y-1991214D01*
X3664643Y-1991214D01*
X3693214Y-2005500D01*
X3707500Y-2019786D01*
X3721786Y-2048357D01*
X3721786Y-2076929D01*
X3707500Y-2119786D01*
X3536071Y-2291214D01*
X3721786Y-2291214D01*
X3836071Y-2019786D02*
X3850357Y-2005500D01*
X3878928Y-1991214D01*
X3950357Y-1991214D01*
X3978928Y-2005500D01*
X3993214Y-2019786D01*
X4007500Y-2048357D01*
X4007500Y-2076929D01*
X3993214Y-2119786D01*
X3821786Y-2291214D01*
X4007500Y-2291214D01*
X4121786Y-1991214D02*
X4121786Y-2048357D01*
X4236071Y-1991214D02*
X4236071Y-2048357D01*
X4678928Y-2405500D02*
X4664643Y-2391214D01*
X4636071Y-2348357D01*
X4621786Y-2319786D01*
X4607500Y-2276929D01*
X4593214Y-2205500D01*
X4593214Y-2148357D01*
X4607500Y-2076929D01*
X4621786Y-2034071D01*
X4636071Y-2005500D01*
X4664643Y-1962643D01*
X4678928Y-1948357D01*
X4921786Y-2091214D02*
X4921786Y-2291214D01*
X4850357Y-1976929D02*
X4778928Y-2191214D01*
X4964643Y-2191214D01*
X5307500Y-2291214D02*
X5307500Y-1991214D01*
X5436071Y-2291214D02*
X5436071Y-2134072D01*
X5421786Y-2105500D01*
X5393214Y-2091214D01*
X5350357Y-2091214D01*
X5321786Y-2105500D01*
X5307500Y-2119786D01*
X5621786Y-2291214D02*
X5593214Y-2276929D01*
X5578928Y-2262643D01*
X5564643Y-2234072D01*
X5564643Y-2148357D01*
X5578928Y-2119786D01*
X5593214Y-2105500D01*
X5621786Y-2091214D01*
X5664643Y-2091214D01*
X5693214Y-2105500D01*
X5707500Y-2119786D01*
X5721786Y-2148357D01*
X5721786Y-2234072D01*
X5707500Y-2262643D01*
X5693214Y-2276929D01*
X5664643Y-2291214D01*
X5621786Y-2291214D01*
X5893214Y-2291214D02*
X5864643Y-2276929D01*
X5850357Y-2248357D01*
X5850357Y-1991214D01*
X6121786Y-2276929D02*
X6093214Y-2291214D01*
X6036071Y-2291214D01*
X6007500Y-2276929D01*
X5993214Y-2248357D01*
X5993214Y-2134072D01*
X6007500Y-2105500D01*
X6036071Y-2091214D01*
X6093214Y-2091214D01*
X6121786Y-2105500D01*
X6136071Y-2134072D01*
X6136071Y-2162643D01*
X5993214Y-2191214D01*
X6250357Y-2276929D02*
X6278928Y-2291214D01*
X6336071Y-2291214D01*
X6364643Y-2276929D01*
X6378928Y-2248357D01*
X6378928Y-2234072D01*
X6364643Y-2205500D01*
X6336071Y-2191214D01*
X6293214Y-2191214D01*
X6264643Y-2176929D01*
X6250357Y-2148357D01*
X6250357Y-2134072D01*
X6264643Y-2105500D01*
X6293214Y-2091214D01*
X6336071Y-2091214D01*
X6364643Y-2105500D01*
X6478928Y-2405500D02*
X6493214Y-2391214D01*
X6521786Y-2348357D01*
X6536071Y-2319786D01*
X6550357Y-2276929D01*
X6564643Y-2205500D01*
X6564643Y-2148357D01*
X6550357Y-2076929D01*
X6536071Y-2034071D01*
X6521786Y-2005500D01*
X6493214Y-1962643D01*
X6478928Y-1948357D01*
M02*
